M48
; DRILL file {KiCad (5.1.8)-1} date 01/20/21 16:08:42
; FORMAT={3:3/ absolute / metric / suppress trailing zeros}
; #@! TF.CreationDate,2021-01-20T16:08:42+09:00
; #@! TF.GenerationSoftware,Kicad,Pcbnew,(5.1.8)-1
FMAT,2
METRIC,LZ
T1C0.400
T2C0.762
T3C0.800
T4C1.000
%
G90
G05
T1
X05225Y-0535
X05225Y-058
X05225Y-06
X05225Y-074
X05225Y-0755
X05225Y-084
X05225Y-1035
X05225Y-108
X05225Y-11
X05225Y-124
X05225Y-1255
X05225Y-134
X052475Y-067
X052475Y-117
X05425Y-077
X05425Y-127
X05475Y-0685
X05475Y-083275
X05475Y-1185
X05475Y-133275
X055113Y-063863
X055113Y-113863
X05525Y-087
X05525Y-0925
X05525Y-137
X05525Y-1425
X05575Y-0515
X05575Y-1015
X05625Y-081
X05625Y-0885
X05625Y-131
X05625Y-1385
X0565Y-07275
X0565Y-12275
X057025Y-093725
X057025Y-143725
X05725Y-08
X05725Y-13
X05775Y-061225
X05775Y-067
X05775Y-111225
X05775Y-117
X059638Y-077113
X059638Y-127113
X05975Y-064212
X05975Y-114213
X06025Y-0575
X06025Y-0605
X06025Y-0705
X06025Y-1075
X06025Y-1105
X06025Y-1205
X06055Y-067
X06075Y-049
X06075Y-0925
X06075Y-099
X06075Y-1425
X06125Y-116
X06225Y-0505
X06225Y-1005
X062675Y-080075
X062675Y-130075
X06275Y-0625
X06275Y-1125
X06325Y-0815
X06325Y-1315
X06525Y-0905
X06525Y-095
X06525Y-1405
X06525Y-145
X06625Y-06
X06625Y-11
X06725Y-0625
X06725Y-0775
X06725Y-08
X06725Y-0845
X06725Y-1125
X06725Y-1275
X06725Y-13
X06725Y-1345
X06825Y-06
X06825Y-11
X06975Y-0495
X06975Y-054
X06975Y-0995
X06975Y-104
X07125Y-0695
X07125Y-074
X07125Y-0815
X07125Y-1195
X07125Y-124
X07125Y-1315
X07175Y-0625
X07175Y-1125
X07275Y-065
X07275Y-115
X07325Y-049
X07325Y-0795
X07325Y-099
X07325Y-1295
X07375Y-094
X07375Y-144
X07425Y-058
X07425Y-06
X07425Y-068
X07425Y-0835
X07425Y-108
X07425Y-11
X07425Y-118
X07425Y-1335
X07475Y-079
X07475Y-081
X07475Y-129
X07475Y-131
X07525Y-061
X07525Y-111
X076177Y-057573
X076177Y-107573
X07625Y-084
X07625Y-134
X07675Y-0715
X07675Y-1215
X076775Y-065545
X076775Y-115545
X07775Y-0785
X07775Y-1285
X077888Y-082138
X077888Y-132138
X07875Y-0725
X07875Y-093725
X07875Y-1225
X07875Y-143725
X079025Y-061225
X079025Y-111225
X07975Y-049
X07975Y-099
X079888Y-080138
X079888Y-130138
X08025Y-0875
X08025Y-1375
X08075Y-067
X08075Y-117
X08225Y-064
X08225Y-0845
X08225Y-114
X08225Y-1345
X08625Y-0535
X08625Y-058
X08625Y-06
X08625Y-074
X08625Y-0755
X08625Y-084
X08625Y-1035
X08625Y-108
X08625Y-11
X08625Y-124
X08625Y-1255
X08625Y-134
X086475Y-067
X086475Y-117
X08825Y-077
X08825Y-127
X08875Y-0685
X08875Y-083275
X08875Y-1185
X08875Y-133275
X089113Y-063863
X089113Y-113863
X08925Y-087
X08925Y-0925
X08925Y-137
X08925Y-1425
X08975Y-0515
X08975Y-1015
X09025Y-081
X09025Y-0885
X09025Y-131
X09025Y-1385
X0905Y-07275
X0905Y-12275
X091025Y-093725
X091025Y-143725
X09125Y-08
X09125Y-13
X09175Y-061225
X09175Y-067
X09175Y-111225
X09175Y-117
X093638Y-077113
X093638Y-127113
X09375Y-064212
X09375Y-114213
X09425Y-0575
X09425Y-0605
X09425Y-0705
X09425Y-1075
X09425Y-1105
X09425Y-1205
X09455Y-067
X09455Y-117
X09475Y-049
X09475Y-0925
X09475Y-099
X09475Y-1425
X09625Y-0505
X09625Y-1005
X096675Y-080075
X096675Y-130075
X09675Y-0625
X09675Y-1125
X09725Y-0815
X09725Y-1315
X09925Y-0905
X09925Y-095
X09925Y-1405
X09925Y-145
X10025Y-06
X10025Y-11
X10125Y-0625
X10125Y-0775
X10125Y-08
X10125Y-0845
X10125Y-1125
X10125Y-1275
X10125Y-13
X10125Y-1345
X10225Y-06
X10225Y-11
X10375Y-0495
X10375Y-054
X10375Y-0995
X10375Y-104
X10525Y-0695
X10525Y-074
X10525Y-0815
X10525Y-1195
X10525Y-124
X10525Y-1315
X10575Y-0625
X10575Y-1125
X10675Y-065
X10675Y-115
X10725Y-049
X10725Y-0795
X10725Y-099
X10725Y-1295
X10775Y-094
X10775Y-144
X10825Y-058
X10825Y-06
X10825Y-068
X10825Y-0835
X10825Y-108
X10825Y-11
X10825Y-118
X10825Y-1335
X10875Y-079
X10875Y-081
X10875Y-129
X10875Y-131
X10925Y-061
X10925Y-111
X110177Y-057573
X110177Y-107573
X11025Y-084
X11025Y-134
X11075Y-0715
X11075Y-1215
X110775Y-065545
X110775Y-115545
X11175Y-0785
X11175Y-1285
X111888Y-082138
X111888Y-132138
X11275Y-0725
X11275Y-093725
X11275Y-1225
X11275Y-143725
X113025Y-061225
X113025Y-111225
X11375Y-049
X11375Y-099
X113888Y-080138
X113888Y-130138
X11425Y-0875
X11425Y-1375
X11475Y-067
X11475Y-117
X11625Y-064
X11625Y-0845
X11625Y-114
X11625Y-1345
X12025Y-0535
X12025Y-058
X12025Y-06
X12025Y-074
X12025Y-0755
X12025Y-084
X12025Y-1035
X12025Y-108
X12025Y-11
X12025Y-124
X12025Y-1255
X12025Y-134
X120475Y-067
X120475Y-117
X12225Y-077
X12225Y-127
X12275Y-0685
X12275Y-083275
X12275Y-1185
X12275Y-133275
X123113Y-063863
X123113Y-113863
X12325Y-087
X12325Y-0925
X12325Y-137
X12325Y-1425
X12375Y-0515
X12375Y-1015
X12425Y-081
X12425Y-0885
X12425Y-131
X12425Y-1385
X1245Y-07275
X1245Y-12275
X125025Y-093725
X125025Y-143725
X12525Y-08
X12525Y-13
X12575Y-061225
X12575Y-067
X12575Y-111225
X12575Y-117
X127638Y-077113
X127638Y-127113
X12775Y-064212
X12775Y-114213
X12825Y-0575
X12825Y-0605
X12825Y-0705
X12825Y-1075
X12825Y-1105
X12825Y-1205
X12855Y-067
X12855Y-117
X12875Y-049
X12875Y-0925
X12875Y-099
X12875Y-1425
X13025Y-0505
X13025Y-1005
X130675Y-080075
X130675Y-130075
X13075Y-0625
X13075Y-1125
X13125Y-0815
X13125Y-1315
X13325Y-0905
X13325Y-095
X13325Y-1405
X13325Y-145
X13425Y-06
X13425Y-11
X13525Y-0625
X13525Y-0775
X13525Y-08
X13525Y-0845
X13525Y-1125
X13525Y-1275
X13525Y-13
X13525Y-1345
X13625Y-06
X13625Y-11
X13775Y-0495
X13775Y-054
X13775Y-0995
X13775Y-104
X13925Y-0695
X13925Y-074
X13925Y-0815
X13925Y-1195
X13925Y-124
X13925Y-1315
X13975Y-0625
X13975Y-1125
X14075Y-065
X14075Y-115
X14125Y-049
X14125Y-0795
X14125Y-099
X14125Y-1295
X14175Y-094
X14175Y-144
X14225Y-058
X14225Y-06
X14225Y-068
X14225Y-0835
X14225Y-108
X14225Y-11
X14225Y-118
X14225Y-1335
X14275Y-079
X14275Y-081
X14275Y-129
X14275Y-131
X14325Y-061
X14325Y-111
X144177Y-057573
X144177Y-107573
X14425Y-084
X14425Y-134
X14475Y-0715
X14475Y-1215
X144775Y-065545
X144775Y-115545
X14575Y-0785
X14575Y-1285
X145888Y-082138
X145888Y-132138
X14675Y-0725
X14675Y-093725
X14675Y-1225
X14675Y-143725
X147025Y-061225
X147025Y-111225
X14775Y-049
X14775Y-099
X147888Y-080138
X147888Y-130138
X14825Y-0875
X14825Y-1375
X14875Y-067
X14875Y-117
X15025Y-064
X15025Y-0845
X15025Y-114
X15025Y-1345
T2
X052875Y-04923
X052875Y-05177
X058625Y-04923
X058625Y-05177
X052875Y-09923
X052875Y-10177
X058625Y-09923
X058625Y-10177
X086875Y-14223
X086875Y-14477
X092625Y-14223
X092625Y-14477
X120875Y-09923
X120875Y-10177
X126625Y-09923
X126625Y-10177
X086875Y-09223
X086875Y-09477
X092625Y-09223
X092625Y-09477
X109875Y-09923
X109875Y-10177
X115625Y-09923
X115625Y-10177
X075875Y-09923
X075875Y-10177
X081625Y-09923
X081625Y-10177
X109875Y-09273
X109875Y-09527
X115625Y-09273
X115625Y-09527
X120875Y-14223
X120875Y-14477
X126625Y-14223
X126625Y-14477
X075875Y-04923
X075875Y-05177
X081625Y-04923
X081625Y-05177
X143875Y-09923
X143875Y-10177
X149625Y-09923
X149625Y-10177
X143875Y-09273
X143875Y-09527
X149625Y-09273
X149625Y-09527
X086875Y-04923
X086875Y-05177
X092625Y-04923
X092625Y-05177
X086875Y-09923
X086875Y-10177
X092625Y-09923
X092625Y-10177
X052875Y-09223
X052875Y-09477
X058625Y-09223
X058625Y-09477
X109875Y-04923
X109875Y-05177
X115625Y-04923
X115625Y-05177
X120875Y-04923
X120875Y-05177
X126625Y-04923
X126625Y-05177
X143875Y-04923
X143875Y-05177
X149625Y-04923
X149625Y-05177
X075875Y-09273
X075875Y-09527
X081625Y-09273
X081625Y-09527
X143875Y-14273
X143875Y-14527
X149625Y-14273
X149625Y-14527
X120875Y-09223
X120875Y-09477
X126625Y-09223
X126625Y-09477
X075875Y-14273
X075875Y-14527
X081625Y-14273
X081625Y-14527
X052875Y-14223
X052875Y-14477
X058625Y-14223
X058625Y-14477
X109875Y-14273
X109875Y-14527
X115625Y-14273
X115625Y-14527
T3
X14375Y-07
X14575Y-07
X14775Y-07
X07425Y-0905
X07625Y-0905
X07825Y-0905
X08025Y-0905
X12125Y-0855
X12325Y-0855
X12525Y-0855
X12725Y-0855
X05525Y-0905
X05725Y-0905
X05925Y-0905
X06125Y-0905
X12175Y-12
X12375Y-12
X12575Y-12
X07425Y-1405
X07625Y-1405
X07825Y-1405
X08025Y-1405
X05525Y-1405
X05725Y-1405
X05925Y-1405
X06125Y-1405
X05475Y-13
X05729Y-13254
X05983Y-13
X12175Y-07
X12375Y-07
X12575Y-07
X14375Y-12
X14575Y-12
X14775Y-12
X05267Y-1145
X05521Y-11196
X05775Y-1145
X07725Y-0745
X07925Y-0745
X08125Y-0745
X07525Y-109
X07725Y-109
X07925Y-109
X08125Y-109
X10925Y-109
X11125Y-109
X11325Y-109
X11525Y-109
X11075Y-13
X11329Y-13254
X11583Y-13
X08925Y-1245
X09125Y-1245
X09325Y-1245
X09875Y-1145
X09875Y-1165
X09875Y-1185
X09875Y-1205
X09875Y-1225
X09875Y-1245
X14525Y-0745
X14725Y-0745
X14925Y-0745
X06475Y-0645
X06475Y-0665
X06475Y-0685
X06475Y-0705
X06475Y-0725
X06475Y-0745
X12325Y-1405
X12525Y-1405
X12725Y-1405
X12925Y-1405
X14225Y-1405
X14425Y-1405
X14625Y-1405
X14825Y-1405
X07725Y-1245
X07925Y-1245
X08125Y-1245
X12275Y-104
X12475Y-104
X12675Y-104
X12875Y-104
X10775Y-104
X10975Y-104
X11175Y-104
X11375Y-104
X12125Y-059
X12325Y-059
X12525Y-059
X12725Y-059
X14525Y-1245
X14725Y-1245
X14925Y-1245
X08667Y-1145
X08921Y-11196
X09175Y-1145
X08925Y-0905
X09125Y-0905
X09325Y-0905
X09525Y-0905
X12275Y-08
X12529Y-08254
X12783Y-08
X14317Y-1145
X14571Y-11196
X14825Y-1145
X07675Y-13
X07929Y-13254
X08183Y-13
X08667Y-0645
X08921Y-06196
X09175Y-0645
X08925Y-1405
X09125Y-1405
X09325Y-1405
X09525Y-1405
X08875Y-13
X09129Y-13254
X09383Y-13
X10925Y-059
X11125Y-059
X11325Y-059
X11525Y-059
X10917Y-0645
X11171Y-06196
X11425Y-0645
X11125Y-1245
X11325Y-1245
X11525Y-1245
X14325Y-0855
X14525Y-0855
X14725Y-0855
X14925Y-0855
X12125Y-1355
X12325Y-1355
X12525Y-1355
X12725Y-1355
X07525Y-059
X07725Y-059
X07925Y-059
X08125Y-059
X14175Y-104
X14375Y-104
X14575Y-104
X14775Y-104
X07525Y-0855
X07725Y-0855
X07925Y-0855
X08125Y-0855
X14325Y-109
X14525Y-109
X14725Y-109
X14925Y-109
X10775Y-054
X10975Y-054
X11175Y-054
X11375Y-054
X14475Y-08
X14729Y-08254
X14983Y-08
X12275Y-13
X12529Y-13254
X12783Y-13
X10925Y-1355
X11125Y-1355
X11325Y-1355
X11525Y-1355
X08925Y-0745
X09125Y-0745
X09325Y-0745
X14325Y-1355
X14525Y-1355
X14725Y-1355
X14925Y-1355
X08725Y-109
X08925Y-109
X09125Y-109
X09325Y-109
X07575Y-07
X07775Y-07
X07975Y-07
X08725Y-1355
X08925Y-1355
X09125Y-1355
X09325Y-1355
X05475Y-104
X05675Y-104
X05875Y-104
X06075Y-104
X10975Y-07
X11175Y-07
X11375Y-07
X07575Y-12
X07775Y-12
X07975Y-12
X07525Y-1355
X07725Y-1355
X07925Y-1355
X08125Y-1355
X08775Y-07
X08975Y-07
X09175Y-07
X12325Y-0905
X12525Y-0905
X12725Y-0905
X12925Y-0905
X05475Y-08
X05729Y-08254
X05983Y-08
X12325Y-0745
X12525Y-0745
X12725Y-0745
X12325Y-1245
X12525Y-1245
X12725Y-1245
X05475Y-054
X05675Y-054
X05875Y-054
X06075Y-054
X10825Y-0905
X11025Y-0905
X11225Y-0905
X11425Y-0905
X10925Y-0855
X11125Y-0855
X11325Y-0855
X11525Y-0855
X12067Y-1145
X12321Y-11196
X12575Y-1145
X08875Y-054
X09075Y-054
X09275Y-054
X09475Y-054
X14175Y-054
X14375Y-054
X14575Y-054
X14775Y-054
X05525Y-1245
X05725Y-1245
X05925Y-1245
X10975Y-12
X11175Y-12
X11375Y-12
X12275Y-054
X12475Y-054
X12675Y-054
X12875Y-054
X07675Y-08
X07929Y-08254
X08183Y-08
X13275Y-1145
X13275Y-1165
X13275Y-1185
X13275Y-1205
X13275Y-1225
X13275Y-1245
X14475Y-13
X14729Y-13254
X14983Y-13
X14225Y-0905
X14425Y-0905
X14625Y-0905
X14825Y-0905
X07375Y-104
X07575Y-104
X07775Y-104
X07975Y-104
X08875Y-08
X09129Y-08254
X09383Y-08
X08725Y-0855
X08925Y-0855
X09125Y-0855
X09325Y-0855
X08775Y-12
X08975Y-12
X09175Y-12
X07375Y-054
X07575Y-054
X07775Y-054
X07975Y-054
X05375Y-07
X05575Y-07
X05775Y-07
X05525Y-0745
X05725Y-0745
X05925Y-0745
X11125Y-0745
X11325Y-0745
X11525Y-0745
X14325Y-059
X14525Y-059
X14725Y-059
X14925Y-059
X05375Y-12
X05575Y-12
X05775Y-12
X05325Y-0855
X05525Y-0855
X05725Y-0855
X05925Y-0855
X06475Y-1145
X06475Y-1165
X06475Y-1185
X06475Y-1205
X06475Y-1225
X06475Y-1245
X10825Y-1405
X11025Y-1405
X11225Y-1405
X11425Y-1405
X08875Y-104
X09075Y-104
X09275Y-104
X09475Y-104
X11075Y-08
X11329Y-08254
X11583Y-08
X10917Y-1145
X11171Y-11196
X11425Y-1145
X12067Y-0645
X12321Y-06196
X12575Y-0645
X13275Y-0645
X13275Y-0665
X13275Y-0685
X13275Y-0705
X13275Y-0725
X13275Y-0745
X05267Y-0645
X05521Y-06196
X05775Y-0645
X05325Y-059
X05525Y-059
X05725Y-059
X05925Y-059
X07517Y-0645
X07771Y-06196
X08025Y-0645
X05325Y-109
X05525Y-109
X05725Y-109
X05925Y-109
X14317Y-0645
X14571Y-06196
X14825Y-0645
X05325Y-1355
X05525Y-1355
X05725Y-1355
X05925Y-1355
X12125Y-109
X12325Y-109
X12525Y-109
X12725Y-109
X07517Y-1145
X07771Y-11196
X08025Y-1145
X09875Y-0645
X09875Y-0665
X09875Y-0685
X09875Y-0705
X09875Y-0725
X09875Y-0745
X08725Y-059
X08925Y-059
X09125Y-059
X09325Y-059
T4
X06975Y-065
X06975Y-06754
X06975Y-07008
X06975Y-07262
X06975Y-07516
X06975Y-0777
X13775Y-115
X13775Y-11754
X13775Y-12008
X13775Y-12262
X13775Y-12516
X13775Y-1277
X10375Y-065
X10375Y-06754
X10375Y-07008
X10375Y-07262
X10375Y-07516
X10375Y-0777
X06975Y-115
X06975Y-11754
X06975Y-12008
X06975Y-12262
X06975Y-12516
X06975Y-1277
X10375Y-115
X10375Y-11754
X10375Y-12008
X10375Y-12262
X10375Y-12516
X10375Y-1277
X13775Y-065
X13775Y-06754
X13775Y-07008
X13775Y-07262
X13775Y-07516
X13775Y-0777
T0
M30
